{"title":"Thoda Tuza Thoda Maza 2013 Marathi 1080p Untouched HD x264 [TMB]","uid":15533930,"size":1950484248,"categoryP":"video","categoryS":"movies","magnet":"?xt=urn:btih:8d0818fe66e97445dbeb299073bd5349de4f3f99&amp;dn=Thoda+Tuza+Thoda+Maza+2013+Marathi+1080p+Untouched+HD+x264+%5BTMB%5D&amp;tr=udp%3A%2F%2Ftracker.leechers-paradise.org%3A6969&amp;tr=udp%3A%2F%2Fzer0day.ch%3A1337&amp;tr=udp%3A%2F%2Fopen.demonii.com%3A1337&amp;tr=udp%3A%2F%2Ftracker.coppersurfer.tk%3A6969&amp;tr=udp%3A%2F%2Fexodus.desync.com%3A6969","seeders":1,"leechers":0,"uploader":"Manoj_vb","files":1,"time":1470861226,"description":"http://i1306.photobucket.com/albums/s570/zyx55e/44_zpsc46e809d.gif\r\n \nhttps://s25.postimg.org/gqsa3hbsv/vlcsnap_1552_07_22_14h29m14s785.png\r\n \nhttps://s25.postimg.org/40o1qe3un/vlcsnap_2820_02_26_03h40m21s581.png\r\n \nhttps://s25.postimg.org/un0ifd81r/vlcsnap_3784_07_04_15h13m03s272.png\r\n \nhttps://s25.postimg.org/ke819jjzz/vlcsnap_4058_06_14_17h30m57s074.png\r\n \nhttps://s25.postimg.org/8qdzezuv3/vlcsnap_4560_07_13_20h04m22s243.png\r\n \nhttps://s25.postimg.org/yzz1xsgsf/vlcsnap_5019_05_18_12h03m35s954.png\r\n \nhttps://s25.postimg.org/etvjywl4v/vlcsnap_5740_04_20_21h11m58s658.png\r\n \nhttps://s25.postimg.org/qx0vmgw73/vlcsnap_9310_06_16_08h25m52s235.png\r\n \nhttps://s25.postimg.org/5orsis73z/vlcsnap_9530_08_04_01h36m50s814.png\r\n \nhttps://s25.postimg.org/5dac60qnz/vlcsnap_9617_04_24_03h13m48s901.png\r\n \nhttp://i1306.photobucket.com/albums/s570/zyx55e/oie_11162011MOJeDGQI_zpsc25b2b81.gif\r\n\r\nGeneral\r\nComplete name               : Thoda Tuza Thoda Maza 2013 1080p Untouched WebHD x264 AAC [TMB].mp4\r\nFormat                      : MPEG-4\r\nFormat profile              : Base Media\r\nCodec ID                    : isom (isom/iso2/avc1/mp41)\r\nFile size                   : 1.82 GiB\r\nDuration                    : 1h 51mn\r\nOverall bit rate mode       : Variable\r\nOverall bit rate            : 2 342 Kbps\r\n\r\nVideo\r\nFormat                      : AVC\r\nFormat/Info                 : Advanced Video Codec\r\nFormat profile              :   \r\nFormat settings, CABAC      : Yes\r\nFormat settings, ReFrames   : 3 frames\r\nCodec ID                    : avc1\r\nCodec ID/Info               : Advanced Video Coding\r\nDuration                    : 1h 51mn\r\nBit rate                    : 2 213 Kbps\r\nWidth                       : 1 920 pixels\r\nHeight                      : 1 080 pixels\r\nDisplay aspect ratio        : 16:9\r\nFrame rate mode             : Variable\r\nFrame rate                  : 23.976 (24000/1001) fps\r\nMinimum frame rate          : 23.974 fps\r\nMaximum frame rate          : 23.981 fps\r\nColor space                 : YUV\r\nChroma subsampling          : 4:2:0\r\nBit depth                   : 8 bits\r\nScan type                   : Progressive\r\nBits/(Pixel*Frame)          : 0.045\r\nStream size                 : 1.72 GiB (94%)\r\n\r\nAudio\r\nFormat                      : AAC\r\nFormat/Info                 : Advanced Audio Codec\r\nFormat profile              : LC\r\nCodec ID                    : 40\r\nDuration                    : 1h 51mn\r\nBit rate mode               : Variable\r\nBit rate                    : 126 Kbps\r\nChannel(s)                  : 2 channels\r\nChannel positions           : Front: L R\r\nSampling rate               : 44.1 KHz\r\nFrame rate                  : 43.066 fps (1024 spf)\r\nCompression mode            : Lossy\r\nStream size                 : 99.7 MiB (5%)\r\n\r\nUploaded &amp; Shared by Manojvb\r\n\r\nSeeding 24x7... Extreme Seeding...\r\n\r\n \nhttp://i1306.photobucket.com/albums/s570/zyx55e/oie_1117625zVIGKvnK_zpsc8b6e055.gif","torrent":{"xt":"urn:btih:8d0818fe66e97445dbeb299073bd5349de4f3f99","amp;dn":"Thoda+Tuza+Thoda+Maza+2013+Marathi+1080p+Untouched+HD+x264+%5BTMB%5D","amp;tr":["udp%3A%2F%2Ftracker.leechers-paradise.org%3A6969","udp%3A%2F%2Fzer0day.ch%3A1337","udp%3A%2F%2Fopen.demonii.com%3A1337","udp%3A%2F%2Ftracker.coppersurfer.tk%3A6969","udp%3A%2F%2Fexodus.desync.com%3A6969"],"infoHash":"8d0818fe66e97445dbeb299073bd5349de4f3f99","infoHashBuffer":{"type":"Buffer","data":[141,8,24,254,102,233,116,69,219,235,41,144,115,189,83,73,222,79,63,153]},"announce":[],"urlList":[]}}